<svg xmlns="http://www.w3.org/2000/svg" viewBox="0 0 32 32">
  <rect width="32" height="32" fill="#0c0e10"/>
  <path d="M2 8 C8 6.5 14 9.5 20 8 C24 7 28 8.5 30 8 L30 13 C24 14.5 18 11.5 12 13 C8 14 4 12.5 2 13 Z" fill="#3E5A72"/>
  <path d="M2 14 C8 12.5 14 15.5 20 14 C24 13 28 14.5 30 14 L30 19 C24 20.5 18 17.5 12 19 C8 20 4 18.5 2 19 Z" fill="#2E5D4B"/>
  <path d="M2 14.6 C8 13.1 14 16.1 20 14.6 C24 13.6 28 15.1 30 14.6" fill="none" stroke="#58D68D" stroke-width="1.1"/>
  <path d="M2 20 C8 18.5 14 21.5 20 20 C24 19 28 20.5 30 20 L30 25 C24 26.5 18 23.5 12 25 C8 26 4 24.5 2 25 Z" fill="#8E4A6B"/>
  <path d="M2 26 C8 24.5 14 27.5 20 26 C24 25 28 26.5 30 26 L30 32 L2 32 Z" fill="#8C3B2E"/>
</svg>
